<svg xmlns="http://www.w3.org/2000/svg" viewBox="0 9.470000267028809 194.19000244140625 36.37999725341797" data-asc="0.9052734375"><g fill="#000000"><g fill="#000000" transform="translate(0, 0)"><path d="M0 45.26L13.75 9.47L18.85 9.47L33.50 45.26L28.10 45.26L23.93 34.42L8.96 34.42L5.03 45.26L0 45.26M10.33 30.57L22.46 30.57L18.73 20.65Q17.02 16.14 16.19 13.23Q15.50 16.67 14.26 20.07L10.33 30.57ZM53.71 45.26L53.71 41.46Q50.68 45.85 45.48 45.85Q43.19 45.85 41.20 44.97Q39.21 44.09 38.24 42.76Q37.28 41.43 36.89 39.50Q36.62 38.21 36.62 35.40L36.62 19.34L41.02 19.34L41.02 33.72Q41.02 37.16 41.28 38.35Q41.70 40.09 43.04 41.08Q44.38 42.07 46.36 42.07Q48.34 42.07 50.07 41.05Q51.81 40.04 52.53 38.29Q53.25 36.55 53.25 33.23L53.25 19.34L57.64 19.34L57.64 45.26L53.71 45.26ZM81.35 45.26L81.35 41.99Q78.88 45.85 74.10 45.85Q71.00 45.85 68.40 44.14Q65.80 42.43 64.37 39.37Q62.94 36.30 62.94 32.32Q62.94 28.44 64.23 25.28Q65.53 22.12 68.12 20.43Q70.70 18.75 73.90 18.75Q76.25 18.75 78.08 19.74Q79.91 20.73 81.05 22.31L81.05 9.47L85.42 9.47L85.42 45.26L81.35 45.26M67.46 32.32Q67.46 37.30 69.56 39.77Q71.66 42.24 74.51 42.24Q77.39 42.24 79.41 39.88Q81.42 37.52 81.42 32.69Q81.42 27.37 79.37 24.88Q77.32 22.39 74.32 22.39Q71.39 22.39 69.42 24.78Q67.46 27.17 67.46 32.32ZM110.08 36.91L114.62 37.48Q113.55 41.46 110.64 43.65Q107.74 45.85 103.22 45.85Q97.53 45.85 94.20 42.35Q90.87 38.84 90.87 32.52Q90.87 25.98 94.24 22.36Q97.61 18.75 102.98 18.75Q108.18 18.75 111.47 22.29Q114.77 25.83 114.77 32.25Q114.77 32.64 114.75 33.42L95.41 33.42Q95.65 37.70 97.83 39.97Q100 42.24 103.25 42.24Q105.66 42.24 107.37 40.97Q109.08 39.70 110.08 36.91M95.65 29.81L110.13 29.81Q109.84 26.54 108.47 24.90Q106.37 22.36 103.03 22.36Q100 22.36 97.94 24.39Q95.87 26.42 95.65 29.81ZM120.14 45.26L120.14 19.34L124.10 19.34L124.10 23.02Q126.95 18.75 132.35 18.75Q134.69 18.75 136.66 19.59Q138.62 20.43 139.60 21.80Q140.58 23.17 140.97 25.05Q141.21 26.27 141.21 29.32L141.21 45.26L136.82 45.26L136.82 29.49Q136.82 26.81 136.30 25.48Q135.79 24.15 134.48 23.35Q133.18 22.56 131.42 22.56Q128.61 22.56 126.57 24.34Q124.54 26.12 124.54 31.10L124.54 45.26L120.14 45.26ZM157.54 41.33L158.18 45.21Q156.32 45.61 154.86 45.61Q152.47 45.61 151.15 44.85Q149.83 44.09 149.29 42.86Q148.75 41.63 148.75 37.67L148.75 22.75L145.53 22.75L145.53 19.34L148.75 19.34L148.75 12.92L153.13 10.28L153.13 19.34L157.54 19.34L157.54 22.75L153.13 22.75L153.13 37.92Q153.13 39.79 153.36 40.33Q153.59 40.87 154.11 41.19Q154.64 41.50 155.62 41.50Q156.35 41.50 157.54 41.33ZM161.87 14.53L161.87 9.47L166.26 9.47L166.26 14.53L161.87 14.53M161.87 45.26L161.87 19.34L166.26 19.34L166.26 45.26L161.87 45.26ZM189.87 35.77L194.19 36.33Q193.48 40.80 190.56 43.32Q187.65 45.85 183.40 45.85Q178.08 45.85 174.84 42.37Q171.61 38.89 171.61 32.40Q171.61 28.20 173.00 25.05Q174.39 21.90 177.23 20.32Q180.08 18.75 183.42 18.75Q187.65 18.75 190.33 20.89Q193.02 23.02 193.77 26.95L189.50 27.61Q188.89 25 187.34 23.68Q185.79 22.36 183.59 22.36Q180.27 22.36 178.20 24.74Q176.12 27.12 176.12 32.28Q176.12 37.50 178.13 39.87Q180.13 42.24 183.35 42.24Q185.94 42.24 187.67 40.65Q189.40 39.06 189.87 35.77Z"/></g></g></svg>